<svg xmlns="http://www.w3.org/2000/svg" width="28" height="27" viewBox="6617 1747.795 28 27" fill="none" aria-hidden="true">
	<path fill="#51634a" fill-rule="nonzero" d="M6619.947265625,1771.795166015625L6619.947265625,1771.795166015625L6619.947265625,1771.795166015625L6619.947265625,1771.795166015625L6619.947265625,1771.795166015625L6619.947265625,1771.795166015625L6619.947265625,1771.795166015625L6619.947265625,1771.795166015625L6619.947265625,1750.795166015625L6619.947265625,1750.795166015625L6619.947265625,1750.795166015625L6619.947265625,1750.795166015625L6619.947265625,1750.795166015625L6619.947265625,1750.795166015625L6619.947265625,1750.795166015625L6619.947265625,1750.795166015625C6619.947265625,1750.795166015625,6619.947265625,1751.351318359375,6619.947265625,1752.4638671875C6619.947265625,1753.576416015625,6619.947265625,1755.02001953125,6619.947265625,1756.795166015625L6619.947265625,1765.795166015625C6619.947265625,1767.570068359375,6619.947265625,1769.013916015625,6619.947265625,1770.126220703125C6619.947265625,1771.23876953125,6619.947265625,1771.795166015625,6619.947265625,1771.795166015625L6619.947265625,1771.795166015625M6619.947265625,1774.795166015625C6619.13671875,1774.795166015625,6618.44287109375,1774.501220703125,6617.86572265625,1773.913818359375C6617.28857421875,1773.326416015625,6617,1772.6201171875,6617,1771.795166015625L6617,1750.795166015625C6617,1749.97021484375,6617.28857421875,1749.263916015625,6617.86572265625,1748.67626953125C6618.44287109375,1748.0888671875,6619.13671875,1747.795166015625,6619.947265625,1747.795166015625L6640.5791015625,1747.795166015625C6641.3896484375,1747.795166015625,6642.08349609375,1748.0888671875,6642.66064453125,1748.67626953125C6643.2373046875,1749.263916015625,6643.5263671875,1749.97021484375,6643.5263671875,1750.795166015625L6643.5263671875,1754.545166015625L6640.5791015625,1754.545166015625L6640.5791015625,1750.795166015625L6640.5791015625,1750.795166015625L6640.5791015625,1750.795166015625L6619.947265625,1750.795166015625L6619.947265625,1750.795166015625L6619.947265625,1750.795166015625L6619.947265625,1771.795166015625L6619.947265625,1771.795166015625L6619.947265625,1771.795166015625L6640.5791015625,1771.795166015625L6640.5791015625,1771.795166015625L6640.5791015625,1771.795166015625L6640.5791015625,1768.045166015625L6643.5263671875,1768.045166015625L6643.5263671875,1771.795166015625C6643.5263671875,1772.6201171875,6643.2373046875,1773.326416015625,6642.66064453125,1773.913818359375C6642.08349609375,1774.501220703125,6641.3896484375,1774.795166015625,6640.5791015625,1774.795166015625L6619.947265625,1774.795166015625L6619.947265625,1774.795166015625M6631.73681640625,1768.795166015625C6630.92626953125,1768.795166015625,6630.232421875,1768.501220703125,6629.6552734375,1767.913818359375C6629.078125,1767.326416015625,6628.78955078125,1766.6201171875,6628.78955078125,1765.795166015625L6628.78955078125,1756.795166015625C6628.78955078125,1755.97021484375,6629.078125,1755.263916015625,6629.6552734375,1754.67626953125C6630.232421875,1754.0888671875,6630.92626953125,1753.795166015625,6631.73681640625,1753.795166015625L6642.052734375,1753.795166015625C6642.86328125,1753.795166015625,6643.55712890625,1754.0888671875,6644.13427734375,1754.67626953125C6644.71142578125,1755.263916015625,6645,1755.97021484375,6645,1756.795166015625L6645,1765.795166015625C6645,1766.6201171875,6644.71142578125,1767.326416015625,6644.13427734375,1767.913818359375C6643.55712890625,1768.501220703125,6642.86328125,1768.795166015625,6642.052734375,1768.795166015625L6631.73681640625,1768.795166015625L6631.73681640625,1768.795166015625M6642.052734375,1765.795166015625L6642.052734375,1765.795166015625L6642.052734375,1765.795166015625L6642.052734375,1756.795166015625L6642.052734375,1756.795166015625L6642.052734375,1756.795166015625L6631.73681640625,1756.795166015625L6631.73681640625,1756.795166015625L6631.73681640625,1756.795166015625L6631.73681640625,1765.795166015625L6631.73681640625,1765.795166015625L6631.73681640625,1765.795166015625L6642.052734375,1765.795166015625L6642.052734375,1765.795166015625M6636.15771484375,1763.545166015625C6636.77197265625,1763.545166015625,6637.2939453125,1763.326416015625,6637.7236328125,1762.888916015625C6638.1533203125,1762.451416015625,6638.36865234375,1761.920166015625,6638.36865234375,1761.295166015625C6638.36865234375,1760.670166015625,6638.1533203125,1760.138916015625,6637.7236328125,1759.701416015625C6637.2939453125,1759.263916015625,6636.77197265625,1759.045166015625,6636.15771484375,1759.045166015625C6635.5439453125,1759.045166015625,6635.02197265625,1759.263916015625,6634.59228515625,1759.701416015625C6634.162109375,1760.138916015625,6633.947265625,1760.670166015625,6633.947265625,1761.295166015625C6633.947265625,1761.920166015625,6634.162109375,1762.451416015625,6634.59228515625,1762.888916015625C6635.02197265625,1763.326416015625,6635.5439453125,1763.545166015625,6636.15771484375,1763.545166015625L6636.15771484375,1763.545166015625"/>
</svg>
